# xmcd CD database file
#
# Track frame offsets:
#	182
#	18717
#	41210
#	62292
#	83150
#	99055
#	124285
#	145302
#	161747
#	180862
#
# Disc length: 2613 seconds
#
# Revision: 0
# Processed by: cddbd v1.5PL3 Copyright (c) Steve Scherf et al.
# Submitted via: CDex 1.51
#
DISCID=7b0a330a
DTITLE=Paul Schmeling Trio - Star Dust: The Music of Hoagy Carmichael
DYEAR=1998
DGENRE=Jazz
TTITLE0=Skylark
TTITLE1=I Get Along Without You Very Well
TTITLE2=Memphis in June
TTITLE3=Stardust
TTITLE4=I Walk With Music
TTITLE5=Georgia
TTITLE6=The Nearness of You
TTITLE7=Morning in May
TTITLE8=Rockin' Chair
TTITLE9=Small Fry
EXTD=YEAR: 1998
EXTT0=
EXTT1=
EXTT2=
EXTT3=
EXTT4=
EXTT5=
EXTT6=
EXTT7=
EXTT8=
EXTT9=
PLAYORDER=
